<svg viewBox="0 0 85.4 127.5" xml:space="preserve" xmlns="http://www.w3.org/2000/svg">
    <g transform="translate(-65.8 -52.4)" fill="rgba(192, 66, 194, 1)">
        <path
            d="M114.5 178.8c0-2.5-1.8-4.6-4.5-5.5-.6-.1-2.5-.4-4.2-.5a18 18 0 0 1-8-1.9c-2-1-2.8-1.7-6.2-5.1l-4.3-4c-.7-.5-3-1.7-5.3-2.7s-4.7-2.3-5.7-3a26 26 0 0 1-10.2-15l-.3-1.2.8 1a18 18 0 0 0 11.3 6.7c1.4.3 3.3.4 8.5.4 7.4.1 9.5.4 13 1.6a21 21 0 0 1 13.6 15.6l.6 4-.8-1c-6.2-8.9-14.6-13.6-27.3-15.2l-3-.3 3.3 1c11.6 2.6 19.2 7 24.5 14.5 1.5 2 3.6 6 4.1 7.9l.3 1.2.2-.7a40 40 0 0 0-3.4-22.5 90 90 0 0 0-7.2-12c-4.3-6.6-6-9.3-7.7-12.7q-4.5-9-6.1-19.2c-.4-2.4-.4-3.7-.4-8.3 0-4.8 0-5.9.4-8.2.9-5 2-9 3.9-13.3 1-2.1 1.1-2.7 1.3-4.5 1-8 3.4-14.3 8-19.8 1.4-2 3.5-3.8 3.9-3.7s2.5 4.6 3.5 7.4a74 74 0 0 1 2.7 9.6q-.1 1 .7.8a25 25 0 0 1 14.7 6.3q2 2.1 3.8 6c2.3 5.7 2.9 6.4 6.5 9a50 50 0 0 0 8.4 4.6c1.5.7 2.9 1.4 3 1.6 1.2 1-1.7 5.4-4.9 7.4-3.5 2.2-7.3 2.8-14.4 2.2q-8.2-.8-9.4 4a6 6 0 0 0 0 3.7c.6 2 1.5 3.2 5.8 7.7a72 72 0 0 1 5.2 6c4.7 6.7 5.8 15 2.9 23.4a37 37 0 0 1-10.6 14.7l-5.1 3.7q-.2-.2-.2-1.8c0-3.7-.7-8.2-2-12.1q-2.1-6.8-8-15.5l-1.8-2.7 1.2.6a9 9 0 0 0 6.5 1c2.4-.7 3.8-3.8 3.7-8 0-1.8 0-2.1.6-3.2a8 8 0 0 0 .3-5.3 6 6 0 0 0-2.9-3.3q-1-.4-1.1-1.2a18 18 0 0 1-.3-6q1.3-5.6 7-7.7c1.4-.6 1.7-.6 5.1-.6l7.8.1c4.2.1 4.2.1 5.8-.5 1.7-.6 4.1-2.1 4.2-2.6l-.4-.9-.5-.6-1.7.3a27 27 0 0 1-13.9-2.2 36 36 0 0 0-13.1-2.9q-3.6 0-6.3 1a22 22 0 0 0-4.1 2.1l-.5.5 1.2-.3a19 19 0 0 1 5.6-.4l1 .1-1.7.5a14 14 0 0 0-8.6 7q.1.8-1.7-.5-6.6-4.5-6.8-14l-.1-2.3-.5 2a21 21 0 0 0 3 14.5l.7 1.1h1c.8 0 1.2 0 2.4.8l2.4 1q1 0 .5.5-.8.9-3 .7-1.3-.1-1 .2l1.8.6 2.3.8q1.7.8 5 5.2c2.3 3 4.2 4.7 6.9 5.5q1.8.6 2.4 2.2.7 1.7-.6 4c-.6 1.3-.6 1.5-.6 4.2 0 2.4-.1 2.9-.5 3.6q-.6 1.4-1.9 1.8c-1.3.4-4-.5-5.7-1.9-.6-.4-1-.5-2.2-.5q-4.1 0-4-3.8c0-3-.5-4.7-3-9.1-2.3-4.3-2.7-6.1-2.2-8.8l.2-1.9v-.9l-.4 1.2c-.6 2-2.6 4-2.1 2v-2.4q0-2.7.7-3.6c.2-.3.2-.5-.4-1.6a28 28 0 0 1-2.5-5.5l-.6-1.8-.2 1.4a60 60 0 0 0 5.5 25.7c1.8 3.8 3.8 7.2 7.6 13a99 99 0 0 1 8 13 42 42 0 0 1 3.8 24.7c-.4 3-.3 2.9-1.8 2.9h-1.2zm.5-42.6q1.2-.8 1-4.5l-.1-2.3.7-1.3q1.8-3.6-.4-4.5c-1-.4-3.4-.4-4.7 0-2.6.8-5 2.8-6.2 5-.7 1.5-1 3.5-.6 4.3q.7 1.1 2.8 1c1 0 1.2 0 2.7 1l1.7 1 1 .3c1.4.4 1.6.4 2.1 0m14-47.5c-.9-1.4-2.2-2.8-3-3.2a10 10 0 0 0-5-.2c-2 .4-2 .4-.8 1l1.9 1.2a7 7 0 0 0 4 1.4l2.4.5q.8.4.9.3zM103.6 77c5.5-3.4 6.9-8 4.7-15.3-.5-1.6-1.5-4.4-1.7-4.4a25 25 0 0 0-5.2 11.5c-.4 2.5 0 9 .6 9zm-23.3 66.3c-1.2-.6-2.5-2.8-2.7-5l-.2-1.5q-.2-.7-1.1-1.9-1.7-1.8-1.6-3.4 0-1.7 1.3-2.6c3-2.1 4-3.2 6.3-8.2 2-4.2 2.7-5.2 4.8-6.4q1.2-.6 1.6-1c.4-.3.3-.5 1 2.7l1.5 5 .9 2.8-.7 2.7c-.7 3-.8 5.8-.3 7.6q1 2.8-.7 4.2c-.6.6-1.8 1.1-2.6 1.1q-.5-.1-2 1.4c-2 2-4.2 3-5.5 2.5m2.3-1.8c.5-.2 1.5-1 2.2-1.7 1.5-1.5 2-1.8 2.8-1.8.9 0 2-.5 2.2-1q.9-1.9-1.8-5a10 10 0 0 0-5.5-3c-3.3-.5-6.4.7-6.4 2.6q-.1 1 1.6 3 .9 1 1 1.4c0 1 .5 3.2.8 4 .8 2 1.5 2.3 3.1 1.5m-13-20.3-1-1.4a9 9 0 0 1-.4-3.6c0-2.5 0-2.6-.7-4q-1.5-3.5.2-5.2l2-1q3-.8 5.7-4.4c4-5 4.5-5.4 7-6.1l2-.6q.8-.4-.7-.3-1.9 0-2.7-.8-.5-.4.3-.5t2.3-.9a5 5 0 0 1 2.4-.7c1 0 1 0 1.6-1.1l1.5-2 .7-1-.4 2-.8 2.5q-.4.7-.2 1 .3.2 0 2.3l-.2 2.9v.8l-.5-.7q-.4-.7-.6-1.5-.4-2-.4.2c.4 4 .4 4 0 5.4-.2.7-1 2.4-1.8 3.9-2.4 4.5-2.8 5.8-2.8 8.5 0 2-.3 2.9-1.3 3.7-.7.5-1 .6-2.5.7s-1.9.2-2.7.8c-2.2 1.4-4.9 2-6 1m3.4-1.3q1-.4 2-1.2c1.3-.8 1.4-.8 3-.8 1.4 0 1.5 0 2.1-.7s.6-.7.5-1.7l-.6-2.3a13 13 0 0 0-3.8-4.4 10 10 0 0 0-6.3-1.3q-3 .8-1 4.5l.8 1.5-.1 1.7q-.3 3 .5 4.3c.4.6.5.6 1.3.6q.9 0 1.6-.2m12.3-6.6q-1-.2.2-.7l1.8-1.5 1.2-1.2.3 1.4c.3 1.6.3 1.6-1 2-.8.3-1.9.2-2.5 0m36-43.5-3.7-1-2.3-.4-.5-2-.4-2.2a30 30 0 0 1 10-9.4c.2 0 .3 3.2.1 6a35 35 0 0 1-1.7 9.6z" />
        <ellipse cx="71.7" cy="110.6" rx="1" ry=".9" />
        <circle cx="76.1" cy="111.9" r="1" />
        <circle cx="72.8" cy="115.8" r="1.1" />
        <circle cx="107.4" cy="130.7" r="1.1" />
        <circle cx="77.8" cy="115.2" r=".6" />
        <circle cx="79.5" cy="132.3" r="1.1" />
        <circle cx="84.3" cy="131.8" r="1.1" />
        <circle cx="82.5" cy="134.7" r=".6" />
        <ellipse cx="87.2" cy="134.7" rx=".7" ry=".8" />
        <circle cx="110.9" cy="126.8" r="1.1" />
        <circle cx="111.2" cy="130.5" r=".6" />
        <circle cx="114.5" cy="125.6" r=".6" />
        <ellipse cx="114.3" cy="128.9" rx=".7" ry=".8" />
        <circle cx="113.3" cy="133.5" r=".8" />
        <ellipse cx="82" cy="139.2" rx="1.1" ry="1.2" />
    </g>
</svg>