<svg xmlns="http://www.w3.org/2000/svg" width="88.01" height="122.04" viewBox="0 0 23.29 32.29"><metadata><rdf:RDF xmlns:rdf="http://www.w3.org/1999/02/22-rdf-syntax-ns#" xmlns:dc="http://purl.org/dc/elements/1.1/"><rdf:Description><dc:creator>RealFaviconGenerator</dc:creator><dc:source>https://realfavicongenerator.net</dc:source></rdf:Description></rdf:RDF></metadata><g fill="#c040c0" transform="translate(-113.21 -142)"><path d="m114.89 142 .7 1.1h1c.8 0 1.2 0 2.4.8l2.39 1q1 0 .5.5-.81.9-3 .7-1.3-.1-1 .2l1.8.6 2.3.8q1.7.8 4.99 5.2c2.3 3 4.19 4.7 6.89 5.5q1.8.6 2.4 2.2.69 1.7-.6 4c-.6 1.3-.6 1.5-.6 4.2 0 2.4-.1 2.9-.5 3.6a3 3 0 0 1-1.9 1.8c-1.3.4-4-.5-5.7-1.9-.6-.4-1-.5-2.19-.5q-4.1 0-4-3.8c0-3-.5-4.7-2.99-9.1-2.3-4.3-2.7-6.1-2.2-8.8l.2-1.9v-.9l-.4 1.2c-.6 2-2.59 4-2.09 2v-2.4q0-2.7.7-3.6c.2-.3.2-.5-.4-1.6m19.07 29.7q1.2-.81 1-4.5l-.1-2.3.7-1.3q1.8-3.6-.4-4.5c-1-.4-3.4-.4-4.7 0-2.6.8-4.99 2.8-6.19 5-.7 1.5-1 3.5-.6 4.3q.7 1.1 2.8 1c1 0 1.2 0 2.7 1l1.7 1 1 .3c1.39.4 1.59.4 2.09 0"></path><circle cx="124.71" cy="167.13" r="1.1"></circle><circle cx="128.21" cy="163.23" r="1.1"></circle><circle cx="128.51" cy="166.93" r=".6"></circle><circle cx="131.8" cy="162.03" r=".6"></circle><ellipse cx="131.61" cy="165.33" rx=".7" ry=".8"></ellipse><circle cx="130.61" cy="169.93" r=".8"></circle></g></svg>